# File created by Blade
# Date/Time:  Wed Apr 08 14:10:35 2015
# Frame Rate: 120.000 fps
#------------------------------------------------------
:FULLY-SPECIFIED
:DEGREES
514
root 0.872678 33.643077 16.419252 17.415428 5.181263 -4.351879
Spine 4.383482 -4.627152 5.465461
Head 9.257006 -1.444367 -3.472478
LeftShoulder -19.754999 46.280733 10.276603
LeftArm 53.679774 -18.972302 -73.375745
LeftForeArm -3.890385 -0.000000 9.453072
LeftHand 18.846801 0.000000 29.035287
LeftHandThumb1 -26.253704 0.000000 33.147579
RightShoulder -3.614149 -2.856068 -22.541241
RightArm 14.472779 3.714338 69.022546
RightForeArm -6.390807 -0.000000 28.274824
RightHand 16.909232 -0.000000 -18.710147
RightHandThumb1 -24.326973 -0.000000 -32.862282
LeftUpLeg -41.850139 -4.701210 2.115306
LeftLeg 46.864447 -0.000000 -0.000000
LeftFoot 3.968661 9.085901 -9.383592
LeftToeBase -15.877170 -0.000000 0.000000
RightUpLeg -36.719697 4.617067 4.141497
RightLeg 46.479182 -0.000000 -0.000000
RightFoot -7.116234 -15.939597 9.190500
RightToeBase -13.307958 -0.000000 0.000000
515
root 0.897722 33.802660 16.434641 17.848030 4.782403 -4.460052
Spine 4.500410 -4.000341 5.454073
Head 9.274149 -1.834016 -3.264201
LeftShoulder -19.384873 46.257610 10.949651
LeftArm 53.953280 -20.383836 -73.580963
LeftForeArm -3.593289 -0.000000 9.904892
LeftHand 19.321367 -0.000000 29.882433
LeftHandThumb1 -26.253704 0.000000 33.147579
RightShoulder -3.382109 -2.662965 -22.526079
RightArm 14.985174 4.525290 69.323225
RightForeArm -6.518766 -0.000000 27.883621
RightHand 17.037598 -0.000000 -18.390768
RightHandThumb1 -24.326973 -0.000000 -32.862282
LeftUpLeg -42.282178 -4.999785 2.442432
LeftLeg 45.242660 -0.000000 -0.000000
LeftFoot 3.284705 11.366052 -9.496535
LeftToeBase -14.711740 -0.000000 0.000000
RightUpLeg -36.717688 4.999677 4.109453
RightLeg 44.644360 -0.000000 -0.000000
RightFoot -6.117840 -15.491342 8.355858
RightToeBase -15.876136 -0.000000 0.000000
516
root 0.918234 33.937336 16.439266 18.472197 4.426384 -4.657678
Spine 4.399315 -3.410944 5.568455
Head 9.145781 -2.191725 -3.121669
LeftShoulder -19.250839 46.215280 11.500928
LeftArm 54.499806 -21.791697 -74.133182
LeftForeArm -3.440062 -0.000000 9.895500
LeftHand 18.880572 -0.000000 30.322840
LeftHandThumb1 -26.253704 0.000000 33.147579
RightShoulder -3.247221 -2.336826 -22.486342
RightArm 15.340758 4.690856 69.293062
RightForeArm -6.301301 -0.000000 27.730297
RightHand 16.855259 -0.000000 -18.522265
RightHandThumb1 -24.326973 -0.000000 -32.862282
LeftUpLeg -42.711429 -5.560851 3.109844
LeftLeg 42.946284 -0.000000 -0.000000
LeftFoot 2.216500 12.784949 -10.034934
LeftToeBase -15.463609 -0.000000 0.000000
RightUpLeg -36.924456 5.276041 4.214243
RightLeg 42.855730 -0.000000 -0.000000
RightFoot -4.472244 -15.779600 7.736162
RightToeBase -18.043276 -0.000000 0.000000
517
root 0.951416 34.042197 16.448373 19.194008 4.026960 -4.768596
Spine 4.146513 -2.849076 5.628065
Head 8.981349 -2.411299 -3.127904
LeftShoulder -19.132544 46.004018 11.927982
LeftArm 54.948349 -23.412176 -74.747310
LeftForeArm -3.851597 -0.000000 9.842074
LeftHand 19.024778 0.000000 30.135915
LeftHandThumb1 -26.253704 0.000000 33.147579
RightShoulder -3.169281 -1.871131 -22.508343
RightArm 15.608996 4.576813 69.202219
RightForeArm -6.084629 -0.000000 27.574903
RightHand 16.954865 -0.000000 -18.597903
RightHandThumb1 -24.326973 -0.000000 -32.862282
LeftUpLeg -43.018523 -5.955482 3.667809
LeftLeg 40.124816 -0.000000 -0.000000
LeftFoot 1.965983 12.598322 -9.971545
LeftToeBase -19.072070 -0.000000 0.000000
RightUpLeg -37.244393 5.465315 4.225667
RightLeg 41.217540 -0.000000 -0.000000
RightFoot -2.558840 -16.569485 7.576026
RightToeBase -17.288517 -0.000000 0.000000
518
root 0.999871 34.121055 16.470030 19.941242 3.787324 -4.776753
Spine 3.801038 -2.418183 5.703355
Head 8.832071 -2.617980 -3.267848
LeftShoulder -18.971043 45.708018 12.327460
LeftArm 55.398794 -24.922901 -75.325086
LeftForeArm -4.348072 -0.000000 9.544141
LeftHand 19.011365 -0.000000 29.681193
LeftHandThumb1 -26.253704 0.000000 33.147579
RightShoulder -3.187719 -1.248709 -22.551249
RightArm 15.682700 4.484509 69.085692
RightForeArm -6.012020 0.000000 27.557172
RightHand 16.352758 -0.000000 -18.745900
RightHandThumb1 -24.326973 -0.000000 -32.862282
LeftUpLeg -43.242176 -6.313737 4.092574
LeftLeg 37.066924 -0.000000 -0.000000
LeftFoot 2.482034 11.304966 -9.793753
LeftToeBase -23.818346 -0.000000 0.000000
RightUpLeg -37.546261 5.338321 4.219983
RightLeg 39.611670 -0.000000 -0.000000
RightFoot -0.501496 -17.331622 7.030488
RightToeBase -15.147398 -0.000000 0.000000
519
root 1.042694 34.169489 16.510130 20.583722 3.538571 -4.822175
Spine 3.511533 -1.920832 5.789569
Head 8.672145 -2.818933 -3.385036
LeftShoulder -18.836308 45.470501 12.681221
LeftArm 55.987579 -26.364656 -75.838512
LeftForeArm -4.966853 -0.000000 9.186221
LeftHand 18.774206 -0.000000 29.271870
LeftHandThumb1 -26.253704 0.000000 33.147579
RightShoulder -3.300160 -0.633372 -22.604448
RightArm 15.733153 4.385549 69.019044
RightForeArm -6.243568 -0.000000 27.424110
RightHand 16.675392 -0.000000 -18.610154
RightHandThumb1 -24.326973 -0.000000 -32.862282
LeftUpLeg -43.315806 -6.466354 4.393616
LeftLeg 34.109848 -0.000000 -0.000000
LeftFoot 3.522993 10.106565 -9.835446
LeftToeBase -25.390231 -0.000000 0.000000
RightUpLeg -37.700578 5.199925 4.284801
RightLeg 38.026505 -0.000000 -0.000000
RightFoot 1.771960 -17.856857 6.684842
RightToeBase -14.345313 -0.000000 0.000000
520
root 1.087322 34.191158 16.564633 21.171857 3.271146 -4.882603
Spine 3.201194 -1.535041 5.901661
Head 8.518686 -2.860518 -3.531857
LeftShoulder -18.711348 45.076725 13.038459
LeftArm 56.192133 -27.630226 -76.045988
LeftForeArm -5.548677 -0.000000 8.743126
LeftHand 18.609467 -0.000000 28.897455
LeftHandThumb1 -26.253704 0.000000 33.147579
RightShoulder -3.312716 -0.106851 -22.735402
RightArm 15.906875 4.623013 69.180721
RightForeArm -6.596336 -0.000000 27.223261
RightHand 16.645325 0.000000 -18.447050
RightHandThumb1 -24.326973 -0.000000 -32.862282
LeftUpLeg -43.261407 -6.681110 4.666588
LeftLeg 31.348062 -0.000000 -0.000000
LeftFoot 4.894784 9.891154 -10.146382
LeftToeBase -22.147847 -0.000000 0.000000
RightUpLeg -37.781686 5.069055 4.346709
RightLeg 36.548043 -0.000000 -0.000000
RightFoot 3.958340 -18.173198 6.637011
RightToeBase -13.414999 -0.000000 0.000000
521
root 1.131952 34.183534 16.633797 21.672647 3.004595 -4.950605
Spine 2.885667 -1.286641 6.022343
Head 8.444619 -2.798344 -3.715172
LeftShoulder -18.739949 44.818205 13.217655
LeftArm 56.357198 -28.819064 -76.016736
LeftForeArm -6.345370 -0.000000 8.304845
LeftHand 18.467225 0.000000 28.449546
LeftHandThumb1 -26.253704 0.000000 33.147579
RightShoulder -3.221504 0.253969 -22.905142
RightArm 16.291659 4.945532 69.437201
RightForeArm -6.768081 0.000000 26.939185
RightHand 16.086888 0.000000 -18.249389
RightHandThumb1 -24.326973 -0.000000 -32.862282
LeftUpLeg -43.121846 -6.984477 4.984872
LeftLeg 28.976258 -0.000000 -0.000000
LeftFoot 6.646545 10.709354 -10.838250
LeftToeBase -19.050807 -0.000000 0.000000
RightUpLeg -37.720971 4.923536 4.448687
RightLeg 35.179258 -0.000000 -0.000000
RightFoot 6.428366 -18.289983 5.886452
RightToeBase -14.334853 -0.000000 0.000000
522
root 1.166921 34.144544 16.703700 22.157291 2.603333 -5.073304
Spine 2.559066 -0.900459 6.067217
Head 8.311671 -2.806617 -3.726489
LeftShoulder -18.755297 44.606984 13.480464
LeftArm 56.381898 -29.931224 -75.871909
LeftForeArm -6.954603 -0.000000 8.057470
LeftHand 18.040979 0.000000 28.039770
LeftHandThumb1 -26.253704 0.000000 33.147579
RightShoulder -3.142009 0.551295 -23.066316
RightArm 16.697519 5.131787 69.684775
RightForeArm -6.790316 -0.000000 26.546264
RightHand 16.273303 -0.000000 -17.994585
RightHandThumb1 -24.326973 -0.000000 -32.862282
LeftUpLeg -43.005363 -7.013522 5.280092
LeftLeg 26.996827 -0.000000 -0.000000
LeftFoot 9.227790 12.104493 -11.001042
LeftToeBase -18.885292 -0.000000 0.000000
RightUpLeg -37.635345 5.056609 4.550488
RightLeg 34.126960 -0.000000 -0.000000
RightFoot 7.846093 -18.059957 4.535973
RightToeBase -20.258212 -0.000000 0.000000
